<?xml version="1.0" standalone="no"?>
<!DOCTYPE svg PUBLIC "-//W3C//DTD SVG 20010904//EN"
 "http://www.w3.org/TR/2001/REC-SVG-20010904/DTD/svg10.dtd">
<svg version="1.0" xmlns="http://www.w3.org/2000/svg"
 width="700.000000pt" height="700.000000pt" viewBox="0 0 700.000000 700.000000"
 preserveAspectRatio="xMidYMid meet">
<metadata>
Created by potrace 1.14, written by Peter Selinger 2001-2017
</metadata>
<g transform="translate(0.000000,700.000000) scale(0.100000,-0.100000)"
fill="#000000" stroke="none">
<path d="M1152 6846 c-71 -25 -173 -131 -271 -281 -25 -38 -108 -176 -184
-305 -76 -129 -142 -239 -146 -243 -5 -5 -46 17 -92 49 -101 69 -140 86 -199
89 -100 6 -180 -43 -204 -125 -40 -135 12 -206 349 -485 94 -77 172 -142 175
-145 3 -3 32 -27 65 -55 33 -27 62 -52 65 -55 3 -3 38 -31 78 -64 39 -32 72
-61 72 -64 0 -4 -73 -93 -115 -138 -5 -6 -55 -64 -109 -128 -77 -90 -106 -116
-125 -117 -224 -7 -298 -16 -347 -39 -82 -40 -114 -101 -107 -203 7 -120 67
-180 177 -181 68 0 225 12 235 18 3 3 26 7 51 11 25 4 47 8 50 10 3 2 25 6 50
10 25 4 47 8 50 10 3 1 28 6 55 9 28 4 57 9 65 11 13 4 382 75 460 88 27 5
182 34 216 41 12 2 38 7 59 10 l37 6 -28 -47 c-171 -296 -503 -510 -969 -627
-55 -14 -113 -28 -130 -30 -144 -25 -232 -71 -285 -146 -44 -62 -35 -209 18
-279 69 -92 208 -90 477 9 380 139 623 264 829 428 106 84 232 205 302 292 16
19 31 37 34 40 3 3 28 37 56 75 199 278 297 551 297 823 0 121 -58 186 -173
195 -154 11 -227 -62 -280 -283 -12 -52 -29 -100 -37 -107 -8 -6 -38 -14 -66
-18 -29 -4 -59 -9 -67 -10 -8 -2 -44 -6 -80 -10 -36 -3 -72 -8 -80 -10 -14 -4
-56 -10 -130 -19 -63 -8 -134 -18 -185 -26 -27 -4 -53 -6 -57 -4 -4 3 17 28
45 58 29 29 165 169 302 310 323 333 339 350 455 484 117 134 195 245 207 292
20 76 -22 171 -90 206 -17 9 -59 19 -93 22 -121 9 -195 -55 -437 -378 -88
-118 -164 -219 -169 -225 -5 -5 -25 -31 -44 -57 l-36 -47 -130 112 c-71 62
-145 124 -164 138 l-34 27 43 48 c130 148 387 480 480 620 112 170 128 273 54
352 -52 56 -171 84 -245 58z"/>
<path d="M2703 6699 c-138 -13 -259 -68 -325 -150 -50 -62 -72 -112 -94 -209
-4 -19 -8 -515 -8 -1102 -1 -694 -5 -1070 -11 -1076 -6 -5 -41 -16 -80 -25
-226 -50 -315 -130 -301 -272 3 -34 13 -76 21 -93 38 -75 126 -110 225 -88 29
6 372 87 500 118 82 19 100 23 138 32 223 52 719 186 1007 274 l160 49 30 -32
c47 -50 87 -97 118 -135 58 -71 163 -172 217 -208 51 -34 60 -37 125 -36 123
1 190 47 216 147 15 60 7 98 -33 161 -40 63 -561 589 -664 671 -103 81 -165
113 -212 109 -129 -13 -178 -54 -187 -159 -4 -42 19 -89 80 -165 l64 -80 -27
-6 c-15 -3 -43 -10 -62 -15 -19 -4 -51 -11 -70 -14 -19 -3 -109 -21 -200 -40
-91 -18 -176 -36 -190 -39 -14 -2 -61 -12 -105 -21 -44 -8 -93 -18 -110 -21
-16 -2 -67 -13 -113 -23 -45 -10 -84 -15 -86 -12 -1 3 -2 148 -2 321 l1 315
625 2 c664 1 707 3 803 29 154 43 231 126 285 308 13 43 14 1037 2 1120 -32
203 -168 332 -380 362 -67 9 -1257 12 -1357 3z m1208 -408 c19 -10 43 -36 56
-61 20 -38 23 -58 23 -157 l0 -113 -627 2 -628 3 1 111 c0 113 12 166 44 192
48 41 55 41 586 41 475 0 513 -1 545 -18z m80 -725 c0 -6 0 -58 -1 -115 -1
-126 -18 -168 -77 -194 -35 -16 -89 -17 -613 -15 l-575 3 0 166 -1 167 633 0
c466 0 633 -3 634 -12z"/>
<path d="M5186 6693 c-152 -22 -271 -93 -341 -204 -36 -56 -73 -173 -81 -254
-9 -95 -9 -2398 1 -2460 20 -135 107 -208 247 -207 85 0 161 34 196 86 53 78
52 41 52 1270 0 627 4 1157 9 1177 18 76 66 129 131 145 49 11 609 12 643 1
38 -12 57 -44 57 -92 0 -67 -59 -175 -215 -390 -227 -314 -239 -435 -60 -604
372 -352 458 -469 450 -610 -12 -196 -149 -297 -430 -316 -165 -12 -248 -43
-295 -111 -44 -66 -49 -173 -11 -258 24 -55 59 -85 123 -107 79 -27 249 -17
426 26 12 3 32 7 45 10 53 11 188 60 254 91 240 114 386 289 418 504 10 67 8
198 -5 255 -31 143 -113 287 -229 404 -67 67 -125 113 -264 209 -90 61 -141
124 -133 163 7 38 89 172 203 334 191 272 298 448 333 549 46 134 -15 278
-143 341 -112 54 -154 58 -749 59 -387 1 -571 -2 -632 -11z"/>
<path d="M3359 3915 c-83 -22 -130 -56 -162 -120 -20 -41 -26 -90 -27 -230 l0
-120 -1158 0 c-636 1 -1177 -3 -1202 -7 -108 -20 -161 -84 -162 -195 -1 -105
49 -169 152 -192 27 -6 236 -11 530 -11 l485 0 48 -191 c27 -105 46 -194 43
-197 -3 -3 -394 -6 -868 -6 -810 -2 -866 -3 -906 -20 -78 -33 -114 -100 -108
-202 5 -101 58 -162 157 -183 68 -15 6553 -15 6629 -1 104 20 153 81 154 195
0 102 -29 152 -114 192 -32 15 -119 17 -948 18 -501 1 -914 4 -917 7 -4 4 28
117 92 323 l19 60 564 5 c598 5 597 5 648 53 36 34 54 75 56 131 4 104 -47
182 -136 207 -33 10 -330 13 -1253 14 l-1210 1 -1 120 c-1 138 -8 194 -30 235
-16 33 -60 75 -97 94 -57 29 -200 39 -278 20z m1150 -907 c-13 -41 -78 -272
-89 -316 -4 -19 -11 -36 -14 -39 -8 -8 -1915 -10 -1927 -2 -5 3 -16 37 -24 75
-9 38 -18 78 -20 89 -3 11 -7 29 -9 40 -2 11 -11 51 -20 88 -9 38 -16 75 -16
83 0 12 145 14 1064 14 l1065 0 -10 -32z"/>
<path d="M1447 1904 c-1 -1 -38 -4 -82 -8 -102 -8 -126 -12 -204 -37 -160 -51
-253 -137 -299 -277 -13 -39 -16 -122 -17 -512 -2 -256 1 -493 6 -527 19 -139
111 -267 233 -324 93 -43 170 -61 331 -77 39 -3 1017 -6 2175 -7 1988 0 2110
1 2190 18 164 35 295 119 349 225 47 92 51 137 50 632 -1 504 -5 547 -55 639
-76 141 -237 228 -457 247 -64 6 -4213 13 -4220 8z m4002 -379 c91 -30 122
-82 128 -219 l5 -102 -2079 0 -2078 1 1 96 c3 166 53 227 199 238 39 3 904 5
1923 4 1659 -2 1859 -4 1901 -18z m139 -744 c5 -152 -46 -249 -142 -269 -22
-4 -903 -8 -1956 -7 -1784 1 -1918 2 -1953 18 -55 25 -94 71 -106 125 -12 53
-13 204 -1 212 5 3 941 5 2082 5 l2073 0 3 -84z"/>
</g>
</svg>
