<?xml version="1.0" encoding="utf-8"?>
<!-- Generator: Adobe Illustrator 25.1.0, SVG Export Plug-In . SVG Version: 6.00 Build 0)  -->
<svg version="1.1" id="Laag_1" xmlns="http://www.w3.org/2000/svg" xmlns:xlink="http://www.w3.org/1999/xlink" x="0px" y="0px"
	 viewBox="0 0 20.7 9.7" style="enable-background:new 0 0 20.7 9.7;" xml:space="preserve">
<path d="M13.5,2.3l-0.2-0.2C13,1.8,12.5,1.8,12.2,2L7.4,6.3L2.6,2C2.3,1.8,1.8,1.8,1.5,2.1L1.4,2.3c-0.3,0.3-0.3,0.8,0,1.1L6.7,8
	l0.1,0.1C6.9,8.2,7,8.3,7.2,8.3l0,0c0.1,0,0.1,0,0.2,0s0.1,0,0.2,0l0,0c0.1,0,0.3-0.1,0.4-0.2L8.2,8l5.3-4.7
	C13.8,3.1,13.8,2.6,13.5,2.3z"/>
</svg>
