<?xml version="1.0" encoding="utf-8"?>
<!-- Generator: Adobe Illustrator 25.1.0, SVG Export Plug-In . SVG Version: 6.00 Build 0)  -->
<svg version="1.1" id="Capa_1" xmlns="http://www.w3.org/2000/svg" xmlns:xlink="http://www.w3.org/1999/xlink" x="0px" y="0px"
	 viewBox="0 0 512 253.8" style="enable-background:new 0 0 512 253.8;" xml:space="preserve">
<path d="M386.8,6.7c-27.4,0-60.4,15.9-100.8,48.5l44.8,45c28.7-22.4,48-30.4,55.9-30.4c31.4,0,57,25.6,57,57c0,31.4-25.6,57-57,57
	c-8.9,0-31-9.7-64.2-37.1c-2.3-1.9-16.8-15.8-40.3-38.4c-23-22.1-49-47.2-52.7-50.2C187.5,23.6,153.4,6.7,125.2,6.7
	C58.9,6.7,5,60.6,5,126.9c0,66.3,53.9,120.2,120.2,120.2c27.4,0,60.4-15.9,100.8-48.5l-44.7-45.2c-28.8,22.5-48.1,30.5-56.1,30.5
	c-31.4,0-57-25.6-57-57c0-31.4,25.5-57,56.9-57c0.2,0,0.4,0,0.7,0c6.3,0,26.6,3.2,63.3,36.8c10.3,9.4,31.4,29.8,51.9,49.4
	c19.2,18.4,39,37.5,41.4,39.3c47.1,36.2,78.4,51.6,104.5,51.6c66.3,0,120.2-53.9,120.2-120.2C507,60.6,453.1,6.7,386.8,6.7z"/>
</svg>
