<?xml version="1.0" encoding="utf-8"?>
<!-- Generator: Adobe Illustrator 25.1.0, SVG Export Plug-In . SVG Version: 6.00 Build 0)  -->
<svg version="1.1" id="Capa_1" xmlns="http://www.w3.org/2000/svg" xmlns:xlink="http://www.w3.org/1999/xlink" x="0px" y="0px"
	 viewBox="0 0 512 423.4" style="enable-background:new 0 0 512 423.4;" xml:space="preserve">
<style type="text/css">
	.st0{fill:#FFFFFF;}
</style>
<g>
	<g>
		<path class="st0" d="M438.2,0H73.8C33.1,0,0,33.1,0,73.8v275.7c0,40.7,33.1,73.8,73.8,73.8h364.3c40.7,0,73.8-33.1,73.8-73.8V73.8
			C512,33.1,478.9,0,438.2,0z M482.5,256H374.2c-24.4,0-44.3-19.9-44.3-44.3s19.9-44.3,44.3-44.3h108.3L482.5,256L482.5,256z
			 M482.5,137.8H374.2c-40.7,0-73.8,33.1-73.8,73.8s33.1,73.8,73.8,73.8h108.3v64c0,24.4-19.9,44.3-44.3,44.3H73.8
			c-24.4,0-44.3-19.9-44.3-44.3V73.8c0-24.4,19.9-44.3,44.3-44.3h364.3c24.4,0,44.3,19.9,44.3,44.3L482.5,137.8L482.5,137.8z"/>
	</g>
</g>
<g>
	<g>
		<path class="st0" d="M393.8,196.9h-19.7c-8.2,0-14.8,6.6-14.8,14.8c0,8.2,6.6,14.8,14.8,14.8h19.7c8.2,0,14.8-6.6,14.8-14.8
			C408.6,203.5,402,196.9,393.8,196.9z"/>
	</g>
</g>
</svg>
