<?xml version="1.0" encoding="utf-8"?>
<!-- Generator: Adobe Illustrator 25.1.0, SVG Export Plug-In . SVG Version: 6.00 Build 0)  -->
<svg version="1.1" id="Layer_1" xmlns="http://www.w3.org/2000/svg" xmlns:xlink="http://www.w3.org/1999/xlink" x="0px" y="0px"
	 viewBox="0 0 20 20" style="enable-background:new 0 0 20 20;" xml:space="preserve">
<style type="text/css">
	.st0{clip-path:url(#SVGID_2_);fill:#FFFFFF;}
</style>
<g>
	<defs>
		<rect id="SVGID_1_" width="20" height="20"/>
	</defs>
	<clipPath id="SVGID_2_">
		<use xlink:href="#SVGID_1_"  style="overflow:visible;"/>
	</clipPath>
	<path class="st0" d="M17.7,4.7c-1.3,0-2.3-1.1-2.3-2.3S16.4,0,17.7,0C18.9,0,20,1.1,20,2.3S18.9,4.7,17.7,4.7"/>
	<path class="st0" d="M10,4.7c-1.3,0-2.3-1.1-2.3-2.3S8.7,0,10,0s2.3,1.1,2.3,2.3S11.3,4.7,10,4.7"/>
	<path class="st0" d="M2.3,4.7C1.1,4.7,0,3.6,0,2.3S1.1,0,2.3,0s2.3,1.1,2.3,2.3S3.6,4.7,2.3,4.7"/>
	<path class="st0" d="M2.3,12.3C1.1,12.3,0,11.3,0,10s1.1-2.3,2.3-2.3S4.7,8.7,4.7,10S3.6,12.3,2.3,12.3"/>
	<path class="st0" d="M10,12.3c-1.3,0-2.3-1.1-2.3-2.3S8.7,7.7,10,7.7s2.3,1.1,2.3,2.3S11.3,12.3,10,12.3"/>
	<path class="st0" d="M2.3,20C1.1,20,0,18.9,0,17.7c0-1.3,1.1-2.3,2.3-2.3s2.3,1.1,2.3,2.3C4.7,18.9,3.6,20,2.3,20"/>
</g>
</svg>
